<?xml version="1.0" encoding="UTF-8"?>
<!DOCTYPE svg PUBLIC "-//W3C//DTD SVG 1.1//EN" "http://www.w3.org/Graphics/SVG/1.1/DTD/svg11.dtd">
<!-- Creator: CorelDRAW X6 -->
<svg xmlns="http://www.w3.org/2000/svg" xml:space="preserve" width="210mm" height="297mm" version="1.1" style="shape-rendering:geometricPrecision; text-rendering:geometricPrecision; image-rendering:optimizeQuality; fill-rule:evenodd; clip-rule:evenodd"
viewBox="0 0 21000 29700"
 xmlns:xlink="http://www.w3.org/1999/xlink">
 <defs>
  <style type="text/css">
   <![CDATA[
    .str6 {stroke:#311807;stroke-width:10.28;stroke-linecap:round;stroke-linejoin:round}
    .str0 {stroke:#9D9E9E;stroke-width:26.25;stroke-linecap:round;stroke-linejoin:round}
    .str1 {stroke:#9D9E9E;stroke-width:50}
    .str7 {stroke:#311807;stroke-width:52.5}
    .str5 {stroke:#311807;stroke-width:52.5;stroke-linecap:round;stroke-linejoin:round}
    .str3 {stroke:#B2B3B3;stroke-width:52.5}
    .str4 {stroke:#B2B3B3;stroke-width:52.5;stroke-linejoin:round}
    .str2 {stroke:#B2B3B3;stroke-width:52.5;stroke-linecap:round;stroke-linejoin:round}
    .fil0 {fill:none}
    .fil2 {fill:#B5E4FA}
    .fil3 {fill:#B6E4FA}
    .fil1 {fill:#E26143}
    .fil4 {fill:#F5E9CC}
    .fil7 {fill:#FEFEFE}
    .fil6 {fill:yellow}
    .fil5 {fill:white}
    .fil8 {fill:#2B2A29;fill-rule:nonzero}
    .room {fill: #ffffff;}
    .area:hover, .area.highlight {fill: #FFFF66;}
    .room:hover, .room.highlight {fill: yellow;}
    .selected {fill: #CCCCFF;}
    .hidden {visibility: hidden;}
   ]]>
  </style>
 </defs>
 <g id="Слой_x0020_1">
  <metadata id="CorelCorpID_0Corel-Layer"/>
  <path class="fil0 str0" d="M1166 403l0 46 257 0m4747 -46l0 46c-82,0 -169,0 -252,0m123 -730l21 67m-339 -689l41 62m-513 -570l57 46m-652 -406l67 30m-740 -211l72 11m-765 0l72 -11m-740 211l67 -30m-652 406l57 -46m-513 570l41 -62m-334 689l21 -67m4506 113l257 -46 108 616c-87,16 -169,30 -257,46l-108 -616zm-272 -560l231 -113 272 560 -231 113 -272 -560zm-421 -462l190 -174 421 462 -190 174 -421 -462zm-529 -329l139 -221 529 329 -139 221 -529 -329zm-601 -169l72 -247 601 169 -72 247 -601 -169zm-627 0l0 -257 627 0 0 257 -627 0zm-601 174l-72 -247 601 -174 72 247 -601 174zm-529 334l-139 -221 529 -334 139 221 -529 334zm-416 467l-190 -174 416 -467 190 174 -416 467zm-272 560l-231 -113 272 -560 231 113 -272 560zm-108 616l-257 -46 108 -616 257 46 -108 616z"/>
  <g id="_754083920">
   <path class="fil0 str1" d="M5106 9378c-128,318 -437,529 -776,529 -344,0 -652,-211 -776,-529l-977 0c149,853 888,1469 1752,1469 863,0 1603,-622 1752,-1469l-977 0z"/>
   <polygon class="fil0 str1" points="3344,8695 3550,8695 3550,9378 2574,9378 2574,9173 3344,9173 "/>
   <polygon class="fil0 str1" points="5312,8695 5106,8695 5106,9378 6077,9378 6077,9173 5312,9173 " onclick="Click(1)"/>
   <path class="fil0 str1" d="M5887 9378c-149,744 -801,1284 -1561,1284 -760,0 -1413,-540 -1561,-1284m2928 0c-144,637 -714,1094 -1367,1094 -657,0 -1223,-453 -1367,-1094m2543 0c-139,534 -622,904 -1176,904 -550,0 -1032,-370 -1176,-904m2153 0c-133,426 -529,719 -977,719 -447,0 -842,-288 -977,-719m1952 0l0 0 0 0z" onclick="Click(2)"/>
   <path class="fil0 str1" d="M4639 8705l-632 0 0 -11 -457 0 0 684c128,318 437,529 776,529 344,0 652,-211 776,-529l0 -684 -462 0 0 11 0 0 -1 0z" onclick="Click(3)"/>
  </g>
  <g id="_752744976">
   <path class="fil0 str2" d="M-1342 2483c160,709 694,1274 1398,1465l0 -1465 -1398 0z"/>
   <path class="fil0 str2" d="M56 3721c-581,-180 -1028,-648 -1172,-1233m1172 1007c-457,-165 -812,-540 -950,-1007m950 776c-339,-144 -601,-426 -719,-776m719 534c-221,-119 -391,-303 -488,-534m488 534l0 0 0 0z"/>
   <path class="fil0 str3" d="M92 705l0 -263 -822 0 0 263 822 0zm-822 -128l822 0m-822 0l0 0 0 0z"/>
   <polyline class="fil0 str4" points="-1342,2483 -1342,449 636,449 "/>
   <line class="fil0 str3" x1="-1342" y1="705" x2="636" y2= "705" />
  </g>
  <script xlink:href="HotelMap.ascx"/>
  <script type="text/ecmascript">
   <![CDATA[
function Click (i) {
    ExtClick(i)
}
]]>
  </script>
  <polygon class="fil1 str5" points="636,449 636,2442 56,3023 56,4487 636,5067 636,8695 8045,8695 8045,449 "/>
  <rect class="fil2 str5" x="894" y="7066" width="1536" height="1371"/>
  <rect class="fil3 str5" x="2579" y="7708" width="822" height="730"/>
  <rect class="fil4 str5" x="3565" y="5664" width="1870" height="2779"/>
  <rect class="fil5 str5" x="894" y="5633" width="2415" height="1320"/>
  <path class="fil5 str6" d="M3170 6942l0 -632 -1731 0 0 -51 1731 0 0 -632m-1644 0l0 632m206 -632l0 632m206 -632l0 632m616 -632l0 632m-411 -632l0 632m206 -632l0 632m411 -632l0 632m206 -632l0 632m-1439 51l0 632m206 -632l0 632m206 -632l0 632m206 -632l0 632m206 -632l0 632m206 -632l0 632m206 -632l0 632m206 -632l0 632m206 -684l0 51m0 -51l0 0 0 0z"/>
  <path class="fil6 str5 room" d="M4572 3249l3216 0 0 2153 -3216 0 0 -2153zm0 -2543l3211 0 0 2286 -3211 0 0 -2286z" onclick="Click(1)"/>
  <rect class="fil6 str5 room" x="5682" y="5669" width="2101" height="2774" onclick="Click(2)"/>
  <polygon class="fil6 str5 room" points="888,5417 4316,5417 4316,705 888,705 888,2561 297,3136 297,4394 894,4975 " onclick="Click(3)"/>
  <rect class="fil7 str5" x="2584" y="7051" width="821" height="497"/>
  <path class="fil4 str5" d="M334 3099l447 -447 -177 -177 -447 447 177 177zm270 -624l-455 -460m2754 -1310l632 0 0 -247 -632 0 0 247zm632 -247l0 -632m1799 3421l632 0 0 -257 -632 0 0 257zm0 -888l0 632m-2024 3001l0 632 257 0 0 -632 -257 0zm277 -329l632 0 0 -247 -632 0 0 247zm632 -257l0 -632m442 632l0 -632m0 888l632 0 0 -257 -632 0 0 257zm-2076 1433l0 401 -154 0 0 -401 154 0zm360 401l-360 0m350 51l401 0 0 160 -401 0 0 -160zm401 519l0 -360m673 986l632 0 0 -252 -632 0 0 252zm632 -257l0 -632m1043 -195l0 -632 -247 0 0 632 247 0zm0 -632l565 0m-2841 123l-405 0m565 0l0 401 -160 0 0 -401 160 0z"/>
  <path class="fil4 str7" d="M7788 4548l257 0 0 -822 -257 0 0 822zm128 -822l0 822m0 -822l0 0 0 0z"/>
  <path class="fil4 str7" d="M7783 1652l263 0 0 -822 -263 0 0 822zm128 -822l0 822m0 -822l0 0 0 0z"/>
  <path class="fil4 str7" d="M2378 8695l0 -257 -822 0 0 257 822 0zm-822 -123l822 0m-822 0l0 0 0 0z"/>
  <path class="fil4 str7" d="M894 5875l-257 0 0 822 257 0 0 -822zm-128 822l0 -822m0 822l0 0 0 0z"/>
  <path class="fil4 str7" d="M7012 8695l0 -252 -822 0 0 252 822 0zm-822 -123l822 0m-822 0l0 0 0 0z"/>
  <path class="fil4 str7" d="M297 3367l-242 0 0 822 242 0 0 -822zm-119 822l0 -822m0 822l0 0 0 0z"/>
  <path class="fil4 str7" d="M7783 2863l263 0 0 -822 -263 0 0 822zm128 -822l0 822m0 -822l0 0 0 0z"/>
  <path class="fil8" d="M1534 3211c-112,10 -189,20 -232,29 -43,10 -78,29 -105,60 -27,30 -40,61 -40,94 0,9 4,23 10,41 7,19 11,34 11,43 0,11 -4,21 -12,31 -8,9 -19,14 -33,14 -39,0 -59,-27 -59,-81 0,-51 17,-98 50,-142 33,-44 78,-74 133,-93 56,-18 130,-31 221,-38 62,-5 104,-11 124,-17 20,-6 42,-19 65,-38 -16,65 -31,148 -44,249l-51 380 -36 328c38,10 73,15 105,15 22,0 45,-2 67,-7l-8 45c-16,2 -32,2 -50,2 -20,0 -57,-3 -110,-8 -28,-3 -48,-5 -59,-5 -25,0 -60,3 -102,10 30,-74 51,-161 62,-263 29,-263 59,-450 87,-562 -74,97 -150,203 -226,319 -145,218 -245,366 -300,442 -56,76 -109,135 -160,176 -51,41 -104,62 -157,62 -59,0 -88,-20 -88,-61 0,-14 4,-25 13,-34 8,-9 19,-14 31,-14 8,0 18,1 31,4 31,8 52,12 63,12 48,0 105,-38 170,-115 65,-77 150,-196 256,-358 157,-241 281,-414 374,-518z"/>
  <path id="1" class="fil8" d="M2186 3803l-136 0 -75 308 -118 0c1,-6 6,-28 17,-64 7,-26 21,-81 42,-163l71 -283c4,-15 5,-27 5,-35 0,-16 -5,-24 -16,-24 -23,0 -64,28 -122,84l-35 -27c112,-103 196,-155 253,-155 29,0 44,19 44,58 0,38 -17,121 -51,252l135 0c34,-95 84,-171 149,-227 66,-55 134,-83 206,-83 62,0 110,22 142,66 32,44 48,99 48,166 0,112 -40,216 -121,312 -80,95 -168,143 -263,143 -58,0 -104,-18 -139,-55 -34,-37 -52,-88 -52,-155 0,-37 5,-76 15,-117zm425 -79c0,-146 -38,-220 -113,-220 -49,0 -93,34 -134,101 -40,67 -60,154 -60,261 0,60 10,108 30,147 20,38 48,58 85,58 50,0 94,-34 133,-102 39,-68 58,-150 58,-245z"/>
  <path id="2" class="fil8" d="M3056 3738c27,-20 61,-54 101,-103 76,-93 134,-153 175,-180 41,-27 81,-41 120,-41 45,0 68,17 68,52 0,34 -20,51 -61,51l-22 -1c-12,-1 -20,-2 -26,-2 -31,0 -62,9 -93,27 -31,18 -71,53 -120,108 -47,52 -81,87 -103,103 72,34 121,68 147,102 27,34 67,119 122,254 40,97 78,165 114,204 36,39 80,59 130,59 22,0 42,-5 60,-16 18,-11 28,-22 28,-35 0,-6 -3,-18 -9,-34 -5,-14 -8,-25 -8,-32 0,-12 5,-22 14,-32 9,-10 20,-15 33,-15 15,0 28,6 38,18 10,12 15,28 15,47 0,40 -18,74 -54,103 -36,29 -81,43 -135,43 -80,0 -151,-31 -215,-91 -64,-61 -129,-185 -195,-373 -19,-54 -36,-94 -53,-118 -17,-25 -43,-47 -79,-67l-79 343 -120 0 55 -213c52,-202 78,-315 78,-342 0,-12 -6,-18 -17,-18 -22,0 -64,32 -125,97l-25 -28c53,-58 105,-100 156,-125 51,-26 88,-38 111,-38 21,0 32,8 32,24 0,6 -4,24 -10,54l-49 215z"/>
  <path id="3" class="fil8" d="M3972 3941l18 45c-127,98 -233,148 -321,148 -46,0 -80,-17 -101,-49 -21,-33 -31,-74 -31,-125 0,-84 22,-170 67,-258 44,-88 98,-156 162,-203 50,-37 106,-55 169,-55 39,0 69,7 89,22 20,15 30,33 30,54 0,17 -5,30 -16,40 -11,10 -25,15 -44,15 -18,0 -42,-8 -71,-25 -30,-18 -55,-27 -75,-27 -26,0 -52,12 -77,35 -25,24 -50,69 -73,137 -23,68 -35,136 -35,204 0,50 10,89 29,117 14,21 34,32 60,32 62,0 136,-36 222,-107z"/>
  <path class="fil8" d="M5088 2053c3,0 9,1 19,3 15,3 27,4 37,4 11,0 24,-1 37,-4l-5 23c-13,2 -24,2 -31,2 -11,0 -27,-1 -45,-3 -20,-2 -37,-3 -52,-3 -12,0 -24,2 -35,6 9,-25 26,-86 50,-184 31,-122 59,-207 84,-255 -24,1 -43,1 -56,1 -37,0 -76,-2 -117,-5 -13,32 -32,98 -57,199 -28,111 -59,182 -93,214 -34,32 -67,48 -100,48 -18,0 -35,-4 -50,-12 -16,-8 -23,-19 -23,-31 0,-7 2,-13 7,-17 5,-4 10,-7 16,-7 11,0 21,7 32,22 10,14 20,21 30,21 23,0 44,-19 62,-57 18,-38 43,-118 76,-240l37 -138c-59,0 -103,13 -131,38 -28,25 -42,54 -42,87 0,9 1,17 4,22 3,6 9,14 18,24 9,10 13,19 13,27 0,7 -3,13 -8,18 -5,5 -12,8 -19,8 -14,0 -24,-8 -31,-23 -7,-15 -11,-33 -11,-52 0,-50 22,-95 65,-133 43,-38 97,-57 162,-57 22,0 52,2 92,5 79,7 158,11 237,11 30,0 45,-10 45,-30 0,-2 0,-5 -1,-11 -1,-5 -1,-8 -1,-10 0,-7 2,-13 7,-17 5,-5 10,-7 17,-7 8,0 14,3 19,9 5,6 8,13 8,23 0,18 -10,35 -29,50 -19,15 -51,23 -95,23 -14,0 -22,1 -24,1 -42,107 -81,244 -116,410z"/>
  <path id="1" class="fil8" d="M5452 1739c26,0 47,10 65,31 17,21 26,49 26,86 0,59 -21,111 -62,158 -41,47 -85,70 -131,70 -28,0 -51,-9 -68,-28 -17,-19 -26,-44 -26,-76 0,-55 16,-107 48,-154 40,-58 90,-88 149,-88zm-34 30c-22,0 -44,16 -65,48 -21,32 -31,76 -31,133 0,34 6,61 19,81 9,14 22,22 38,22 22,0 42,-14 60,-41 23,-36 35,-80 35,-133 0,-40 -5,-68 -16,-85 -11,-17 -24,-25 -40,-25z"/>
  <path id="2" class="fil8" d="M5927 2002c-50,54 -89,81 -119,81 -8,0 -16,-4 -24,-12 -7,-8 -13,-28 -16,-60l-16 -165c-38,102 -70,167 -95,195 -25,28 -52,42 -82,42 -13,0 -23,-3 -31,-10 -8,-7 -12,-16 -12,-27 0,-11 3,-19 10,-26 7,-7 15,-10 24,-10 5,0 12,2 22,6 9,4 17,6 22,6 13,0 26,-6 39,-19 13,-13 32,-49 57,-108 25,-59 38,-92 38,-98 0,-8 -4,-12 -11,-12 -16,0 -40,16 -71,47l-17 -14c56,-51 98,-77 129,-77 11,0 19,4 22,11 4,7 6,22 9,45l16 191c3,36 12,54 26,54 7,0 19,-7 35,-22 17,-15 28,-25 34,-30l10 14z"/>
  <path id="3" class="fil8" d="M5923 1821l-13 -19 29 -20c29,-20 49,-32 60,-38 7,-3 13,-5 18,-5 6,0 11,3 16,9 23,29 43,69 59,119 16,50 24,98 24,145 0,6 0,15 -1,28 45,-82 67,-148 67,-196 0,-10 -2,-23 -7,-40 -5,-19 -7,-32 -7,-40 0,-8 2,-14 7,-19 5,-5 11,-8 19,-8 9,0 17,4 22,11 6,7 9,17 9,31 0,34 -8,77 -23,128 -16,51 -40,105 -74,164 -33,59 -64,102 -92,131 -28,28 -54,49 -80,61 -26,12 -50,18 -73,18 -17,0 -31,-3 -39,-10 -9,-6 -13,-14 -13,-23 0,-8 3,-15 10,-20 7,-6 16,-9 28,-9 9,0 21,2 37,5 17,4 28,5 34,5 16,0 33,-7 51,-20 25,-18 44,-41 58,-66 14,-26 22,-52 22,-78 0,-37 -5,-81 -16,-132 -11,-52 -26,-91 -45,-118 -10,-14 -20,-21 -31,-21 -13,0 -31,9 -55,27z"/>
  <path id="4" class="fil8" d="M6596 2002c-50,54 -89,81 -119,81 -8,0 -16,-4 -24,-12 -7,-8 -13,-28 -16,-60l-16 -165c-38,102 -70,167 -95,195 -25,28 -52,42 -82,42 -13,0 -23,-3 -31,-10 -8,-7 -12,-16 -12,-27 0,-11 3,-19 10,-26 7,-7 15,-10 24,-10 5,0 12,2 22,6 9,4 17,6 22,6 13,0 26,-6 39,-19 13,-13 32,-49 57,-108 25,-59 38,-92 38,-98 0,-8 -4,-12 -11,-12 -16,0 -40,16 -71,47l-17 -14c56,-51 98,-77 129,-77 11,0 19,4 22,11 4,7 6,22 9,45l16 191c3,36 12,54 26,54 7,0 19,-7 35,-22 17,-15 28,-25 34,-30l10 14z"/>
  <path id="5" class="fil8" d="M6774 1919l-68 0 -37 154 -59 0c1,-3 3,-14 8,-32 4,-13 11,-40 21,-82l35 -142c2,-7 3,-13 3,-17 0,-8 -3,-12 -8,-12 -12,0 -32,14 -61,42l-17 -13c56,-52 98,-77 126,-77 15,0 22,10 22,29 0,19 -9,61 -26,126l68 0c17,-48 42,-85 75,-113 33,-28 67,-42 103,-42 31,0 55,11 71,33 16,22 24,49 24,83 0,56 -20,108 -60,156 -40,48 -84,72 -132,72 -29,0 -52,-9 -69,-28 -17,-18 -26,-44 -26,-78 0,-18 3,-38 8,-59zm212 -39c0,-73 -19,-110 -56,-110 -24,0 -47,17 -67,51 -20,34 -30,77 -30,130 0,30 5,54 15,73 10,19 24,29 43,29 25,0 47,-17 67,-51 19,-34 29,-75 29,-122z"/>
  <path id="6" class="fil8" d="M7209 1886c14,-10 30,-27 50,-52 38,-47 67,-77 87,-90 21,-14 41,-20 60,-20 23,0 34,9 34,26 0,17 -10,25 -30,25l-11 0c-6,-1 -10,-1 -13,-1 -16,0 -31,4 -46,13 -15,9 -35,27 -60,54 -23,26 -41,43 -51,51 36,17 60,34 74,51 13,17 34,60 61,127 20,48 39,82 57,102 18,20 40,30 65,30 11,0 21,-3 30,-8 9,-5 14,-11 14,-17 0,-3 -1,-9 -4,-17 -3,-7 -4,-13 -4,-16 0,-6 2,-11 7,-16 5,-5 10,-7 17,-7 8,0 14,3 19,9 5,6 8,14 8,24 0,20 -9,37 -27,51 -18,14 -40,22 -67,22 -40,0 -76,-15 -108,-46 -32,-31 -65,-93 -98,-186 -9,-27 -18,-47 -27,-59 -8,-12 -22,-24 -40,-33l-39 171 -60 0 28 -106c26,-101 39,-158 39,-171 0,-6 -3,-9 -9,-9 -11,0 -32,16 -63,49l-12 -14c27,-29 53,-50 78,-63 26,-13 44,-19 56,-19 11,0 16,4 16,12 0,3 -2,12 -5,27l-25 108z"/>
  <path id="7" class="fil8" d="M7667 1988l9 23c-63,49 -117,74 -160,74 -23,0 -40,-8 -50,-25 -10,-16 -16,-37 -16,-62 0,-42 11,-85 33,-129 22,-44 49,-78 81,-102 25,-18 53,-27 84,-27 19,0 34,4 44,11 10,7 15,16 15,27 0,8 -3,15 -8,20 -5,5 -13,8 -22,8 -9,0 -21,-4 -36,-13 -15,-9 -28,-13 -38,-13 -13,0 -26,6 -39,18 -13,12 -25,35 -37,68 -12,34 -17,68 -17,102 0,25 5,44 15,58 7,11 17,16 30,16 31,0 68,-18 111,-54z"/>
  <path class="fil8" d="M5986 6235l44 11c-9,36 -25,63 -49,82 -24,19 -53,28 -87,28 -35,0 -64,-7 -86,-22 -22,-14 -39,-35 -51,-63 -12,-27 -17,-57 -17,-88 0,-34 7,-64 20,-89 13,-25 32,-45 56,-58 24,-13 51,-20 79,-20 33,0 60,8 83,25 22,17 38,40 47,70l-43 10c-8,-24 -19,-41 -33,-52 -14,-11 -33,-16 -55,-16 -25,0 -46,6 -63,18 -17,12 -29,28 -36,49 -7,20 -10,41 -10,63 0,28 4,52 12,73 8,21 21,36 38,47 17,10 36,15 56,15 24,0 45,-7 62,-21 17,-14 28,-35 34,-63z"/>
  <polygon id="1" class="fil8" points="6058,6112 6250,6112 6250,6146 6174,6146 6174,6351 6134,6351 6134,6146 6058,6146 "/>
  <path id="2" class="fil8" d="M6439 6321c-15,13 -29,22 -43,27 -14,5 -29,8 -45,8 -26,0 -46,-6 -60,-19 -14,-13 -21,-29 -21,-49 0,-12 3,-22 8,-32 5,-10 12,-17 21,-23 9,-6 18,-10 29,-13 8,-2 20,-4 36,-6 33,-4 57,-8 72,-14 0,-6 0,-9 0,-10 0,-16 -4,-28 -11,-35 -10,-9 -26,-14 -46,-14 -19,0 -33,3 -42,10 -9,7 -16,18 -20,35l-39 -6c4,-17 9,-31 18,-41 8,-10 20,-18 36,-24 16,-6 34,-8 54,-8 20,0 37,2 50,7 13,5 22,11 28,18 6,7 10,16 13,28 1,7 2,19 2,37l0 54c0,37 1,61 3,71 2,10 5,20 10,29l-42 0c-4,-8 -7,-18 -8,-30zm-3 -89c-15,6 -37,11 -66,15 -17,2 -28,5 -35,8 -7,3 -12,7 -16,13 -4,6 -6,12 -6,19 0,11 4,20 12,27 8,7 20,11 36,11 16,0 29,-3 42,-10 12,-7 21,-16 27,-28 4,-9 7,-22 7,-40l0 -15z"/>
  <polygon id="3" class="fil8" points="6539,6112 6579,6112 6579,6212 6691,6212 6691,6112 6731,6112 6731,6351 6691,6351 6691,6245 6579,6245 6579,6351 6539,6351 "/>
  <path id="4" class="fil8" d="M6824 6112l166 0 0 205 26 0 0 100 -33 0 0 -67 -188 0 0 67 -33 0 0 -100 21 0c28,-39 42,-107 41,-205zm33 33c-3,77 -15,134 -36,172l128 0 0 -172 -92 0z"/>
  <path id="5" class="fil8" d="M7215 6321c-15,13 -29,22 -43,27 -14,5 -29,8 -45,8 -26,0 -46,-6 -60,-19 -14,-13 -21,-29 -21,-49 0,-12 3,-22 8,-32 5,-10 12,-17 21,-23 9,-6 18,-10 29,-13 8,-2 20,-4 36,-6 33,-4 57,-8 72,-14 0,-6 0,-9 0,-10 0,-16 -4,-28 -11,-35 -10,-9 -26,-14 -46,-14 -19,0 -33,3 -42,10 -9,7 -16,18 -20,35l-39 -6c4,-17 9,-31 18,-41 8,-10 20,-18 36,-24 16,-6 34,-8 54,-8 20,0 37,2 50,7 13,5 22,11 28,18 6,7 10,16 13,28 1,7 2,19 2,37l0 54c0,37 1,61 3,71 2,10 5,20 10,29l-42 0c-4,-8 -7,-18 -8,-30zm-3 -89c-15,6 -37,11 -66,15 -17,2 -28,5 -35,8 -7,3 -12,7 -16,13 -4,6 -6,12 -6,19 0,11 4,20 12,27 8,7 20,11 36,11 16,0 29,-3 42,-10 12,-7 21,-16 27,-28 4,-9 7,-22 7,-40l0 -15z"/>
  <path id="6" class="fil8" d="M7315 6442l0 -329 37 0 0 31c9,-12 18,-21 29,-27 11,-6 24,-9 40,-9 20,0 38,5 54,16 16,10 27,25 35,44 8,19 12,40 12,63 0,24 -4,46 -13,66 -9,19 -21,34 -38,45 -17,10 -34,16 -52,16 -13,0 -26,-3 -36,-8 -11,-6 -19,-13 -26,-21l0 116 -40 0zm37 -209c0,31 6,53 18,68 12,15 27,22 45,22 18,0 33,-8 46,-23 13,-15 19,-39 19,-70 0,-30 -6,-53 -19,-68 -12,-15 -27,-23 -45,-23 -17,0 -32,8 -45,24 -13,16 -20,39 -20,70z"/>
  <polygon id="7" class="fil8" points="7538,6112 7731,6112 7731,6146 7655,6146 7655,6351 7615,6351 7615,6146 7538,6146 "/>
 </g>
</svg>
